<mxfile modified="2024-07-02T14:18:18.870Z" host="Electron" agent="Mozilla/5.0 (Windows NT 10.0; Win64; x64) AppleWebKit/537.36 (KHTML, like Gecko) draw.io/24.1.0 Chrome/120.0.6099.109 Electron/28.1.0 Safari/537.36" etag="a-hsWVPO_MHZCbYJw-Gf" version="24.1.0" type="device">
  <diagram id="eIo0H9kK7ql945uVP1NC" name="Page-1">
    <mxGraphModel dx="1247" dy="727" grid="1" gridSize="10" guides="1" tooltips="1" connect="1" arrows="1" fold="1" page="1" pageScale="1" pageWidth="827" pageHeight="1169" math="0" shadow="0">
      <root>
        <mxCell id="0" />
        <mxCell id="1" parent="0" />
        <mxCell id="T21aQVliIUyU_0U-5JRh-43" value="" style="ellipse;whiteSpace=wrap;html=1;aspect=fixed;rounded=0;fontSize=7;align=center;fillColor=none;strokeWidth=7;strokeColor=#6E6F72;spacingTop=0;" parent="1" vertex="1">
          <mxGeometry x="1104" y="346.5" width="190" height="190" as="geometry" />
        </mxCell>
        <mxCell id="T21aQVliIUyU_0U-5JRh-18" value="NODE 2" style="aspect=fixed;perimeter=ellipsePerimeter;html=1;align=center;shadow=0;dashed=0;fontColor=#4277BB;labelBackgroundColor=#ffffff;fontSize=12;spacingTop=0;image;image=img/lib/ibm/blockchain/node.svg;" parent="1" vertex="1">
          <mxGeometry x="1169" y="318" width="60" height="60" as="geometry" />
        </mxCell>
        <mxCell id="T21aQVliIUyU_0U-5JRh-19" value="NODE 1" style="aspect=fixed;perimeter=ellipsePerimeter;html=1;align=center;shadow=0;dashed=0;fontColor=#4277BB;labelBackgroundColor=#ffffff;fontSize=12;spacingTop=0;image;image=img/lib/ibm/blockchain/node.svg;" parent="1" vertex="1">
          <mxGeometry x="1074" y="413" width="60" height="60" as="geometry" />
        </mxCell>
        <mxCell id="T21aQVliIUyU_0U-5JRh-20" value="NODE 3" style="aspect=fixed;perimeter=ellipsePerimeter;html=1;align=center;shadow=0;dashed=0;fontColor=#4277BB;labelBackgroundColor=#ffffff;fontSize=12;spacingTop=0;image;image=img/lib/ibm/blockchain/node.svg;" parent="1" vertex="1">
          <mxGeometry x="1264.5" y="413.00000000000006" width="60" height="60" as="geometry" />
        </mxCell>
        <mxCell id="215iWh7Wm44OcX2ayy9I-29" style="edgeStyle=orthogonalEdgeStyle;rounded=0;sketch=1;hachureGap=4;jiggle=2;curveFitting=1;orthogonalLoop=1;jettySize=auto;html=1;fontFamily=Architects Daughter;fontSource=https%3A%2F%2Ffonts.googleapis.com%2Fcss%3Ffamily%3DArchitects%2BDaughter;" edge="1" parent="1" source="T21aQVliIUyU_0U-5JRh-21" target="215iWh7Wm44OcX2ayy9I-28">
          <mxGeometry relative="1" as="geometry" />
        </mxCell>
        <mxCell id="T21aQVliIUyU_0U-5JRh-21" value="NODE 4" style="aspect=fixed;perimeter=ellipsePerimeter;html=1;align=center;shadow=0;dashed=0;fontColor=#4277BB;labelBackgroundColor=#ffffff;fontSize=12;spacingTop=0;image;image=img/lib/ibm/blockchain/node.svg;" parent="1" vertex="1">
          <mxGeometry x="1169" y="498" width="60" height="60" as="geometry" />
        </mxCell>
        <mxCell id="T21aQVliIUyU_0U-5JRh-62" value="" style="edgeStyle=orthogonalEdgeStyle;fontSize=12;html=1;endArrow=classicThin;endFill=1;rounded=0;strokeColor=#0076BE;strokeWidth=2;startArrow=classicThin;startFill=1;entryX=1;entryY=0.5;entryDx=0;entryDy=0;" parent="1" source="T21aQVliIUyU_0U-5JRh-19" target="215iWh7Wm44OcX2ayy9I-25" edge="1">
          <mxGeometry width="60" height="60" relative="1" as="geometry">
            <mxPoint x="961.5" y="613" as="sourcePoint" />
            <mxPoint x="980" y="443" as="targetPoint" />
          </mxGeometry>
        </mxCell>
        <mxCell id="T21aQVliIUyU_0U-5JRh-35" value="" style="verticalLabelPosition=bottom;verticalAlign=top;html=1;shape=mxgraph.basic.obtuse_triangle;dx=0.34;rounded=0;flipH=1;strokeColor=none;fillColor=#939598;spacingTop=0;" parent="1" vertex="1">
          <mxGeometry x="1036.5" y="553" width="140" height="150" as="geometry" />
        </mxCell>
        <mxCell id="T21aQVliIUyU_0U-5JRh-36" value="" style="swimlane;fontStyle=0;horizontal=1;collapsible=0;startSize=47;swimlaneLine=0;swimlaneFillColor=none;fillColor=none;rounded=0;whiteSpace=wrap;html=1;absoluteArcSize=1;arcSize=12;strokeColor=none;fontColor=#417CB9;verticalAlign=top;align=center;spacingLeft=5;dashed=0;strokeWidth=2;" parent="1" vertex="1">
          <mxGeometry x="200" y="163" width="276.5" height="540" as="geometry" />
        </mxCell>
        <mxCell id="T21aQVliIUyU_0U-5JRh-2" value="USER" style="aspect=fixed;perimeter=ellipsePerimeter;html=1;align=center;shadow=0;dashed=0;fontColor=#4277BB;labelBackgroundColor=#ffffff;fontSize=12;spacingTop=0;image;image=img/lib/ibm/blockchain/blockchain_developer.svg;" parent="T21aQVliIUyU_0U-5JRh-36" vertex="1">
          <mxGeometry x="20" y="157" width="81" height="81" as="geometry" />
        </mxCell>
        <mxCell id="T21aQVliIUyU_0U-5JRh-4" value="WEB&lt;br&gt;APPLICATION&lt;br&gt;" style="aspect=fixed;perimeter=ellipsePerimeter;html=1;align=center;shadow=0;dashed=0;fontColor=#4277BB;labelBackgroundColor=#ffffff;fontSize=12;spacingTop=0;image;image=img/lib/ibm/users/browser.svg;" parent="T21aQVliIUyU_0U-5JRh-36" vertex="1">
          <mxGeometry x="192.75" y="147" width="83.75" height="83.75" as="geometry" />
        </mxCell>
        <mxCell id="215iWh7Wm44OcX2ayy9I-34" style="edgeStyle=orthogonalEdgeStyle;rounded=0;sketch=1;hachureGap=4;jiggle=2;curveFitting=1;orthogonalLoop=1;jettySize=auto;html=1;entryX=0.027;entryY=0.585;entryDx=0;entryDy=0;entryPerimeter=0;fontFamily=Architects Daughter;fontSource=https%3A%2F%2Ffonts.googleapis.com%2Fcss%3Ffamily%3DArchitects%2BDaughter;" edge="1" parent="T21aQVliIUyU_0U-5JRh-36" source="T21aQVliIUyU_0U-5JRh-2" target="T21aQVliIUyU_0U-5JRh-4">
          <mxGeometry relative="1" as="geometry" />
        </mxCell>
        <mxCell id="T21aQVliIUyU_0U-5JRh-37" value="" style="swimlane;fontStyle=0;horizontal=1;collapsible=0;startSize=28;swimlaneLine=0;swimlaneFillColor=none;fillColor=none;rounded=0;whiteSpace=wrap;html=1;absoluteArcSize=1;arcSize=12;strokeColor=none;fontColor=#417CB9;verticalAlign=top;align=center;spacingLeft=5;dashed=0;strokeWidth=2;" parent="1" vertex="1">
          <mxGeometry x="551.5" y="163" width="470" height="540.0021739130435" as="geometry" />
        </mxCell>
        <mxCell id="215iWh7Wm44OcX2ayy9I-33" style="edgeStyle=orthogonalEdgeStyle;rounded=0;sketch=1;hachureGap=4;jiggle=2;curveFitting=1;orthogonalLoop=1;jettySize=auto;html=1;entryX=0.75;entryY=0;entryDx=0;entryDy=0;fontFamily=Architects Daughter;fontSource=https%3A%2F%2Ffonts.googleapis.com%2Fcss%3Ffamily%3DArchitects%2BDaughter;" edge="1" parent="T21aQVliIUyU_0U-5JRh-37" source="T21aQVliIUyU_0U-5JRh-7" target="T21aQVliIUyU_0U-5JRh-11">
          <mxGeometry relative="1" as="geometry" />
        </mxCell>
        <mxCell id="T21aQVliIUyU_0U-5JRh-7" value="REST API" style="aspect=fixed;perimeter=ellipsePerimeter;html=1;align=center;shadow=0;dashed=0;fontColor=#4277BB;labelBackgroundColor=#ffffff;fontSize=12;spacingTop=0;image;image=img/lib/ibm/infrastructure/edge_services.svg;" parent="T21aQVliIUyU_0U-5JRh-37" vertex="1">
          <mxGeometry x="155.5" y="87" width="87" height="87" as="geometry" />
        </mxCell>
        <mxCell id="T21aQVliIUyU_0U-5JRh-11" value="APPLICATION&lt;br&gt;LOGIC&lt;br&gt;" style="aspect=fixed;perimeter=ellipsePerimeter;html=1;align=center;shadow=0;dashed=0;fontColor=#4277BB;labelBackgroundColor=#ffffff;fontSize=12;spacingTop=0;image;image=img/lib/ibm/applications/application_logic.svg;" parent="T21aQVliIUyU_0U-5JRh-37" vertex="1">
          <mxGeometry x="89" y="250" width="60" height="60" as="geometry" />
        </mxCell>
        <mxCell id="215iWh7Wm44OcX2ayy9I-26" style="edgeStyle=orthogonalEdgeStyle;rounded=0;sketch=1;hachureGap=4;jiggle=2;curveFitting=1;orthogonalLoop=1;jettySize=auto;html=1;entryX=0;entryY=0.5;entryDx=0;entryDy=0;fontFamily=Architects Daughter;fontSource=https%3A%2F%2Ffonts.googleapis.com%2Fcss%3Ffamily%3DArchitects%2BDaughter;" edge="1" parent="T21aQVliIUyU_0U-5JRh-37" source="215iWh7Wm44OcX2ayy9I-20" target="215iWh7Wm44OcX2ayy9I-25">
          <mxGeometry relative="1" as="geometry" />
        </mxCell>
        <mxCell id="215iWh7Wm44OcX2ayy9I-20" value="C Network API" style="aspect=fixed;perimeter=ellipsePerimeter;html=1;align=center;shadow=0;dashed=0;fontColor=#4277BB;labelBackgroundColor=#ffffff;fontSize=7;spacingTop=0;image;image=img/lib/ibm/applications/application_logic.svg;" vertex="1" parent="T21aQVliIUyU_0U-5JRh-37">
          <mxGeometry x="248.5" y="238.5" width="84.8" height="84.8" as="geometry" />
        </mxCell>
        <mxCell id="215iWh7Wm44OcX2ayy9I-25" value="RPC COMMUNICATION" style="aspect=fixed;perimeter=ellipsePerimeter;html=1;align=center;shadow=0;dashed=0;fontColor=#4277BB;labelBackgroundColor=#ffffff;fontSize=7;spacingTop=0;image;image=img/lib/ibm/blockchain/communication.svg;" vertex="1" parent="T21aQVliIUyU_0U-5JRh-37">
          <mxGeometry x="378.5" y="249.13" width="60.87" height="60.87" as="geometry" />
        </mxCell>
        <mxCell id="215iWh7Wm44OcX2ayy9I-28" value="PoW CONSENSUS ALGO" style="aspect=fixed;perimeter=ellipsePerimeter;html=1;align=center;shadow=0;dashed=0;fontColor=#4277BB;labelBackgroundColor=#ffffff;fontSize=7;spacingTop=0;image;image=img/lib/ibm/blockchain/consensus.svg;" vertex="1" parent="T21aQVliIUyU_0U-5JRh-37">
          <mxGeometry x="370" y="417" width="69.37" height="69.37" as="geometry" />
        </mxCell>
        <mxCell id="215iWh7Wm44OcX2ayy9I-18" value="LEDGER" style="aspect=fixed;perimeter=ellipsePerimeter;html=1;align=center;shadow=0;dashed=0;fontColor=#4277BB;labelBackgroundColor=#ffffff;fontSize=7;spacingTop=0;image;image=img/lib/ibm/blockchain/ledger.svg;" vertex="1" parent="T21aQVliIUyU_0U-5JRh-37">
          <mxGeometry x="220" y="447" width="78.74" height="78.74" as="geometry" />
        </mxCell>
        <mxCell id="215iWh7Wm44OcX2ayy9I-30" style="edgeStyle=orthogonalEdgeStyle;rounded=0;sketch=1;hachureGap=4;jiggle=2;curveFitting=1;orthogonalLoop=1;jettySize=auto;html=1;entryX=1.054;entryY=0.457;entryDx=0;entryDy=0;entryPerimeter=0;fontFamily=Architects Daughter;fontSource=https%3A%2F%2Ffonts.googleapis.com%2Fcss%3Ffamily%3DArchitects%2BDaughter;" edge="1" parent="T21aQVliIUyU_0U-5JRh-37" source="215iWh7Wm44OcX2ayy9I-28" target="215iWh7Wm44OcX2ayy9I-18">
          <mxGeometry relative="1" as="geometry" />
        </mxCell>
        <mxCell id="215iWh7Wm44OcX2ayy9I-31" value="DATA STORE" style="aspect=fixed;perimeter=ellipsePerimeter;html=1;align=center;shadow=0;dashed=0;fontColor=#4277BB;labelBackgroundColor=#ffffff;fontSize=7;spacingTop=0;image;image=img/lib/ibm/data/data_services.svg;" vertex="1" parent="T21aQVliIUyU_0U-5JRh-37">
          <mxGeometry x="164.63" y="348.26" width="68.74" height="68.74" as="geometry" />
        </mxCell>
        <mxCell id="215iWh7Wm44OcX2ayy9I-32" style="edgeStyle=orthogonalEdgeStyle;rounded=0;sketch=1;hachureGap=4;jiggle=2;curveFitting=1;orthogonalLoop=1;jettySize=auto;html=1;entryX=1.002;entryY=0.396;entryDx=0;entryDy=0;entryPerimeter=0;fontFamily=Architects Daughter;fontSource=https%3A%2F%2Ffonts.googleapis.com%2Fcss%3Ffamily%3DArchitects%2BDaughter;" edge="1" parent="T21aQVliIUyU_0U-5JRh-37" source="215iWh7Wm44OcX2ayy9I-18" target="215iWh7Wm44OcX2ayy9I-31">
          <mxGeometry relative="1" as="geometry" />
        </mxCell>
        <mxCell id="T21aQVliIUyU_0U-5JRh-1" value="WALLET&lt;br&gt;(EXTERNAL)&lt;br&gt;" style="aspect=fixed;perimeter=ellipsePerimeter;html=1;align=center;shadow=0;dashed=0;fontColor=#4277BB;labelBackgroundColor=#ffffff;fontSize=12;spacingTop=0;image;image=img/lib/ibm/blockchain/wallet.svg;" parent="T21aQVliIUyU_0U-5JRh-37" vertex="1">
          <mxGeometry x="-41.5" y="47" width="82" height="82" as="geometry" />
        </mxCell>
        <mxCell id="215iWh7Wm44OcX2ayy9I-37" style="edgeStyle=orthogonalEdgeStyle;rounded=0;sketch=1;hachureGap=4;jiggle=2;curveFitting=1;orthogonalLoop=1;jettySize=auto;html=1;entryX=0.554;entryY=-0.028;entryDx=0;entryDy=0;entryPerimeter=0;fontFamily=Architects Daughter;fontSource=https%3A%2F%2Ffonts.googleapis.com%2Fcss%3Ffamily%3DArchitects%2BDaughter;" edge="1" parent="T21aQVliIUyU_0U-5JRh-37" source="T21aQVliIUyU_0U-5JRh-1" target="T21aQVliIUyU_0U-5JRh-7">
          <mxGeometry relative="1" as="geometry">
            <Array as="points">
              <mxPoint x="204" y="57" />
            </Array>
          </mxGeometry>
        </mxCell>
        <mxCell id="215iWh7Wm44OcX2ayy9I-38" style="edgeStyle=orthogonalEdgeStyle;rounded=0;sketch=1;hachureGap=4;jiggle=2;curveFitting=1;orthogonalLoop=1;jettySize=auto;html=1;entryX=-0.029;entryY=0.471;entryDx=0;entryDy=0;entryPerimeter=0;fontFamily=Architects Daughter;fontSource=https%3A%2F%2Ffonts.googleapis.com%2Fcss%3Ffamily%3DArchitects%2BDaughter;" edge="1" parent="T21aQVliIUyU_0U-5JRh-37" source="T21aQVliIUyU_0U-5JRh-11" target="215iWh7Wm44OcX2ayy9I-20">
          <mxGeometry relative="1" as="geometry" />
        </mxCell>
        <mxCell id="215iWh7Wm44OcX2ayy9I-39" value="EVENTS" style="aspect=fixed;perimeter=ellipsePerimeter;html=1;align=center;shadow=0;dashed=0;fontColor=#4277BB;labelBackgroundColor=#ffffff;fontSize=7;spacingTop=0;image;image=img/lib/ibm/blockchain/event.svg;" vertex="1" parent="T21aQVliIUyU_0U-5JRh-37">
          <mxGeometry x="298.74" y="340" width="63.5" height="63.5" as="geometry" />
        </mxCell>
        <mxCell id="215iWh7Wm44OcX2ayy9I-40" style="edgeStyle=orthogonalEdgeStyle;rounded=0;sketch=1;hachureGap=4;jiggle=2;curveFitting=1;orthogonalLoop=1;jettySize=auto;html=1;entryX=0.267;entryY=0.144;entryDx=0;entryDy=0;entryPerimeter=0;fontFamily=Architects Daughter;fontSource=https%3A%2F%2Ffonts.googleapis.com%2Fcss%3Ffamily%3DArchitects%2BDaughter;" edge="1" parent="T21aQVliIUyU_0U-5JRh-37" source="215iWh7Wm44OcX2ayy9I-39" target="215iWh7Wm44OcX2ayy9I-28">
          <mxGeometry relative="1" as="geometry" />
        </mxCell>
        <mxCell id="T21aQVliIUyU_0U-5JRh-38" value="" style="group;fontSize=7;" parent="1" vertex="1" connectable="0">
          <mxGeometry x="929" y="708.5" width="300" height="160" as="geometry" />
        </mxCell>
        <mxCell id="T21aQVliIUyU_0U-5JRh-27" value="CONSENSUS" style="aspect=fixed;perimeter=ellipsePerimeter;html=1;align=center;shadow=0;dashed=0;fontColor=#4277BB;labelBackgroundColor=#ffffff;fontSize=7;spacingTop=0;image;image=img/lib/ibm/blockchain/consensus.svg;" parent="T21aQVliIUyU_0U-5JRh-38" vertex="1">
          <mxGeometry x="94.73684210526316" y="13.91304347826087" width="41.73913043478261" height="41.73913043478261" as="geometry" />
        </mxCell>
        <mxCell id="T21aQVliIUyU_0U-5JRh-28" value="LEDGER" style="aspect=fixed;perimeter=ellipsePerimeter;html=1;align=center;shadow=0;dashed=0;fontColor=#4277BB;labelBackgroundColor=#ffffff;fontSize=7;spacingTop=0;image;image=img/lib/ibm/blockchain/ledger.svg;" parent="T21aQVliIUyU_0U-5JRh-38" vertex="1">
          <mxGeometry x="165.78947368421052" y="13.91304347826087" width="41.73913043478261" height="41.73913043478261" as="geometry" />
        </mxCell>
        <mxCell id="T21aQVliIUyU_0U-5JRh-29" value="SMART&lt;br style=&quot;font-size: 7px;&quot;&gt;CONTRACT&lt;br style=&quot;font-size: 7px;&quot;&gt;" style="aspect=fixed;perimeter=ellipsePerimeter;html=1;align=center;shadow=0;dashed=0;fontColor=#4277BB;labelBackgroundColor=#ffffff;fontSize=7;spacingTop=0;image;image=img/lib/ibm/blockchain/smart_contract.svg;" parent="T21aQVliIUyU_0U-5JRh-38" vertex="1">
          <mxGeometry x="236.8421052631579" y="13.91304347826087" width="41.73913043478261" height="41.73913043478261" as="geometry" />
        </mxCell>
        <mxCell id="T21aQVliIUyU_0U-5JRh-31" value="COMMUNICATION" style="aspect=fixed;perimeter=ellipsePerimeter;html=1;align=center;shadow=0;dashed=0;fontColor=#4277BB;labelBackgroundColor=#ffffff;fontSize=7;spacingTop=0;image;image=img/lib/ibm/blockchain/communication.svg;" parent="T21aQVliIUyU_0U-5JRh-38" vertex="1">
          <mxGeometry x="94.73684210526316" y="90.43478260869566" width="41.73913043478261" height="41.73913043478261" as="geometry" />
        </mxCell>
        <mxCell id="T21aQVliIUyU_0U-5JRh-32" value="DATA STORE" style="aspect=fixed;perimeter=ellipsePerimeter;html=1;align=center;shadow=0;dashed=0;fontColor=#4277BB;labelBackgroundColor=#ffffff;fontSize=7;spacingTop=0;image;image=img/lib/ibm/data/data_services.svg;" parent="T21aQVliIUyU_0U-5JRh-38" vertex="1">
          <mxGeometry x="165.78947368421052" y="90.43478260869566" width="41.73913043478261" height="41.73913043478261" as="geometry" />
        </mxCell>
        <mxCell id="T21aQVliIUyU_0U-5JRh-33" value="API" style="aspect=fixed;perimeter=ellipsePerimeter;html=1;align=center;shadow=0;dashed=0;fontColor=#4277BB;labelBackgroundColor=#ffffff;fontSize=7;spacingTop=0;image;image=img/lib/ibm/applications/application_logic.svg;" parent="T21aQVliIUyU_0U-5JRh-38" vertex="1">
          <mxGeometry x="236.8421052631579" y="90.43478260869566" width="41.73913043478261" height="41.73913043478261" as="geometry" />
        </mxCell>
        <mxCell id="T21aQVliIUyU_0U-5JRh-34" value="" style="swimlane;fontStyle=0;horizontal=1;collapsible=0;startSize=28;swimlaneLine=0;swimlaneFillColor=none;fillColor=none;rounded=0;whiteSpace=wrap;html=1;absoluteArcSize=1;arcSize=12;strokeColor=#417CB9;fontColor=#417CB9;verticalAlign=top;align=left;spacingLeft=5;dashed=0;strokeWidth=2;fontSize=7;spacingTop=0;" parent="T21aQVliIUyU_0U-5JRh-38" vertex="1">
          <mxGeometry width="300" height="160" as="geometry" />
        </mxCell>
        <mxCell id="T21aQVliIUyU_0U-5JRh-30" value="EVENTS" style="aspect=fixed;perimeter=ellipsePerimeter;html=1;align=center;shadow=0;dashed=0;fontColor=#4277BB;labelBackgroundColor=#ffffff;fontSize=7;spacingTop=0;image;image=img/lib/ibm/blockchain/event.svg;" parent="T21aQVliIUyU_0U-5JRh-34" vertex="1">
          <mxGeometry x="23.68421052631579" y="59.13478260869566" width="41.73913043478261" height="41.73913043478261" as="geometry" />
        </mxCell>
        <mxCell id="T21aQVliIUyU_0U-5JRh-95" value="" style="ellipse;whiteSpace=wrap;html=1;aspect=fixed;rounded=0;strokeColor=none;strokeWidth=7;fillColor=#A71E6C;fontSize=14;fontColor=#FFFFFF;align=center;" parent="1" vertex="1">
          <mxGeometry x="1236.5" y="538" width="8" height="8" as="geometry" />
        </mxCell>
        <mxCell id="T21aQVliIUyU_0U-5JRh-96" value="" style="ellipse;whiteSpace=wrap;html=1;aspect=fixed;rounded=0;strokeColor=none;strokeWidth=7;fillColor=#A71E6C;fontSize=14;fontColor=#FFFFFF;align=center;" parent="1" vertex="1">
          <mxGeometry x="1257.5" y="528.5" width="8" height="8" as="geometry" />
        </mxCell>
        <mxCell id="T21aQVliIUyU_0U-5JRh-97" value="" style="ellipse;whiteSpace=wrap;html=1;aspect=fixed;rounded=0;strokeColor=none;strokeWidth=7;fillColor=#A71E6C;fontSize=14;fontColor=#FFFFFF;align=center;" parent="1" vertex="1">
          <mxGeometry x="1288.5" y="497.5" width="8" height="8" as="geometry" />
        </mxCell>
        <mxCell id="T21aQVliIUyU_0U-5JRh-98" value="" style="ellipse;whiteSpace=wrap;html=1;aspect=fixed;rounded=0;strokeColor=none;strokeWidth=7;fillColor=#A71E6C;fontSize=14;fontColor=#FFFFFF;align=center;" parent="1" vertex="1">
          <mxGeometry x="1275.5" y="514" width="8" height="8" as="geometry" />
        </mxCell>
        <mxCell id="T21aQVliIUyU_0U-5JRh-99" value="" style="ellipse;whiteSpace=wrap;html=1;aspect=fixed;rounded=0;strokeColor=none;strokeWidth=7;fillColor=#A71E6C;fontSize=14;fontColor=#FFFFFF;align=center;" parent="1" vertex="1">
          <mxGeometry x="1156.5" y="539" width="8" height="8" as="geometry" />
        </mxCell>
        <mxCell id="T21aQVliIUyU_0U-5JRh-100" value="" style="ellipse;whiteSpace=wrap;html=1;aspect=fixed;rounded=0;strokeColor=none;strokeWidth=7;fillColor=#A71E6C;fontSize=14;fontColor=#FFFFFF;align=center;" parent="1" vertex="1">
          <mxGeometry x="1134.5" y="530" width="8" height="8" as="geometry" />
        </mxCell>
        <mxCell id="T21aQVliIUyU_0U-5JRh-101" value="" style="ellipse;whiteSpace=wrap;html=1;aspect=fixed;rounded=0;strokeColor=none;strokeWidth=7;fillColor=#A71E6C;fontSize=14;fontColor=#FFFFFF;align=center;" parent="1" vertex="1">
          <mxGeometry x="1115.5" y="513" width="8" height="8" as="geometry" />
        </mxCell>
        <mxCell id="T21aQVliIUyU_0U-5JRh-102" value="" style="ellipse;whiteSpace=wrap;html=1;aspect=fixed;rounded=0;strokeColor=none;strokeWidth=7;fillColor=#A71E6C;fontSize=14;fontColor=#FFFFFF;align=center;" parent="1" vertex="1">
          <mxGeometry x="1100.5" y="496" width="8" height="8" as="geometry" />
        </mxCell>
        <mxCell id="T21aQVliIUyU_0U-5JRh-103" value="" style="ellipse;whiteSpace=wrap;html=1;aspect=fixed;rounded=0;strokeColor=none;strokeWidth=7;fillColor=#A71E6C;fontSize=14;fontColor=#FFFFFF;align=center;" parent="1" vertex="1">
          <mxGeometry x="1236.5" y="335" width="8" height="8" as="geometry" />
        </mxCell>
        <mxCell id="T21aQVliIUyU_0U-5JRh-104" value="" style="ellipse;whiteSpace=wrap;html=1;aspect=fixed;rounded=0;strokeColor=none;strokeWidth=7;fillColor=#A71E6C;fontSize=14;fontColor=#FFFFFF;align=center;" parent="1" vertex="1">
          <mxGeometry x="1260.5" y="349" width="8" height="8" as="geometry" />
        </mxCell>
        <mxCell id="T21aQVliIUyU_0U-5JRh-105" value="" style="ellipse;whiteSpace=wrap;html=1;aspect=fixed;rounded=0;strokeColor=none;strokeWidth=7;fillColor=#A71E6C;fontSize=14;fontColor=#FFFFFF;align=center;" parent="1" vertex="1">
          <mxGeometry x="1280.5" y="368" width="8" height="8" as="geometry" />
        </mxCell>
        <mxCell id="T21aQVliIUyU_0U-5JRh-106" value="" style="ellipse;whiteSpace=wrap;html=1;aspect=fixed;rounded=0;strokeColor=none;strokeWidth=7;fillColor=#A71E6C;fontSize=14;fontColor=#FFFFFF;align=center;" parent="1" vertex="1">
          <mxGeometry x="1295.5" y="390" width="8" height="8" as="geometry" />
        </mxCell>
        <mxCell id="T21aQVliIUyU_0U-5JRh-107" value="" style="ellipse;whiteSpace=wrap;html=1;aspect=fixed;rounded=0;strokeColor=none;strokeWidth=7;fillColor=#A71E6C;fontSize=14;fontColor=#FFFFFF;align=center;" parent="1" vertex="1">
          <mxGeometry x="1153.5" y="339" width="8" height="8" as="geometry" />
        </mxCell>
        <mxCell id="T21aQVliIUyU_0U-5JRh-108" value="" style="ellipse;whiteSpace=wrap;html=1;aspect=fixed;rounded=0;strokeColor=none;strokeWidth=7;fillColor=#A71E6C;fontSize=14;fontColor=#FFFFFF;align=center;" parent="1" vertex="1">
          <mxGeometry x="1129.5" y="352" width="8" height="8" as="geometry" />
        </mxCell>
        <mxCell id="T21aQVliIUyU_0U-5JRh-109" value="" style="ellipse;whiteSpace=wrap;html=1;aspect=fixed;rounded=0;strokeColor=none;strokeWidth=7;fillColor=#A71E6C;fontSize=14;fontColor=#FFFFFF;align=center;" parent="1" vertex="1">
          <mxGeometry x="1108.5" y="373" width="8" height="8" as="geometry" />
        </mxCell>
        <mxCell id="215iWh7Wm44OcX2ayy9I-19" value="SMART&lt;br style=&quot;font-size: 7px;&quot;&gt;CONTRACT&lt;br style=&quot;font-size: 7px;&quot;&gt;" style="aspect=fixed;perimeter=ellipsePerimeter;html=1;align=center;shadow=0;dashed=0;fontColor=#4277BB;labelBackgroundColor=#ffffff;fontSize=7;spacingTop=0;image;image=img/lib/ibm/blockchain/smart_contract.svg;" vertex="1" parent="1">
          <mxGeometry x="1167.8100000000002" y="410.32" width="62.37" height="62.37" as="geometry" />
        </mxCell>
        <mxCell id="215iWh7Wm44OcX2ayy9I-35" style="edgeStyle=orthogonalEdgeStyle;rounded=0;sketch=1;hachureGap=4;jiggle=2;curveFitting=1;orthogonalLoop=1;jettySize=auto;html=1;entryX=0;entryY=0.25;entryDx=0;entryDy=0;fontFamily=Architects Daughter;fontSource=https%3A%2F%2Ffonts.googleapis.com%2Fcss%3Ffamily%3DArchitects%2BDaughter;" edge="1" parent="1" source="T21aQVliIUyU_0U-5JRh-4" target="T21aQVliIUyU_0U-5JRh-1">
          <mxGeometry relative="1" as="geometry">
            <Array as="points">
              <mxPoint x="440" y="233" />
            </Array>
          </mxGeometry>
        </mxCell>
      </root>
    </mxGraphModel>
  </diagram>
</mxfile>
